<?xml version="1.0" encoding="UTF-8"?>
<!DOCTYPE svg PUBLIC "-//W3C//DTD SVG 1.1//EN" "http://www.w3.org/Graphics/SVG/1.1/DTD/svg11.dtd">
<!-- Creator: CorelDRAW X7 -->
<svg xmlns="http://www.w3.org/2000/svg" xml:space="preserve" width="15in" height="0.500004in" version="1.1" style="shape-rendering:geometricPrecision; text-rendering:geometricPrecision; image-rendering:optimizeQuality; fill-rule:evenodd; clip-rule:evenodd"
viewBox="0 0 37128 1238"
 xmlns:xlink="http://www.w3.org/1999/xlink">
 <defs>
  <style type="text/css">
   <![CDATA[
    .fil0 {fill:#FEFEFE;fill-rule:nonzero}
   ]]>
  </style>
 </defs>
 <g id="Layer_x0020_1">
  <metadata id="CorelCorpID_0Corel-Layer"/>
  <polygon id="Jagged-Line.svg" class="fil0" points="4561,1238 4455,1238 4429,1212 4270,1134 4137,1031 4084,1006 4004,1006 3739,1031 3607,980 3421,902 3209,902 3129,954 2679,954 2387,877 2307,902 2201,928 2175,902 1936,928 1830,954 1618,1006 1352,1134 1167,1109 1087,1057 902,1057 769,1031 716,1031 583,1006 424,980 345,902 106,748 0,77 0,0 37128,0 37101,77 37075,155 37022,232 36809,284 36703,258 36597,181 36544,155 36359,77 36279,52 36199,26 35987,77 35616,77 35590,52 35457,103 35351,180 35324,206 35059,155 34980,129 34714,155 34608,129 34582,103 34343,129 34210,180 34157,180 33972,155 33892,180 33707,180 33415,258 33123,284 32699,309 32301,258 31930,258 31559,284 31320,284 30922,180 30869,206 30789,232 30657,206 30020,206 29516,180 29490,180 29331,129 29251,180 29145,258 28933,413 28800,464 28562,490 28456,438 28403,438 28164,413 27978,387 27925,361 27925,335 27872,284 27687,335 27581,361 27474,309 27342,335 27024,413 26838,438 26546,516 26228,541 26175,541 25724,567 25592,619 25406,748 25300,799 25114,774 25035,748 24876,722 24690,670 24425,645 24292,645 24106,619 24027,593 23974,593 23841,619 23709,619 23656,645 23443,619 23337,541 23284,567 23178,645 23019,722 22860,722 22701,748 22648,722 22462,696 22356,722 22224,748 21985,696 21746,722 21269,722 20685,696 20420,645 20314,567 20235,516 20075,516 19916,541 19757,619 19386,619 19333,670 19200,696 18988,696 18829,645 18723,645 18537,619 18484,619 18193,645 17874,541 17715,490 17556,438 17450,413 17238,516 17132,490 17026,438 16893,413 16867,438 16760,541 16495,541 16336,593 16018,490 15991,438 15912,335 15859,258 15753,180 15673,180 15594,155 15594,103 15541,52 15488,77 15435,155 15381,180 15328,129 15249,103 15143,180 15063,180 14878,77 14692,103 14586,129 14321,103 14135,26 14082,0 13817,0 13764,26 13578,77 13499,77 13260,258 13207,258 13154,206 13048,180 12597,155 12305,155 12226,103 12013,77 11828,103 11748,103 11669,129 11483,52 11430,26 11377,0 11324,26 11006,0 10820,26 10714,52 10608,155 10555,155 10555,52 10369,52 10263,26 10104,26 9998,0 9812,26 9282,129 8964,103 8805,129 8327,103 8274,103 8195,180 8089,284 7850,335 7797,258 7691,284 7664,284 7558,309 7426,335 7187,413 7054,490 6975,619 6948,645 6869,670 6763,696 6656,645 6603,670 6603,696 6550,722 6444,670 6365,696 6179,851 6100,877 5993,928 5887,1031 5675,1083 5622,1083 5384,1031 5251,1006 4774,1134 "/>
 </g>
</svg>
