<svg width="720" height="24" viewBox="0 0 720 24" fill="none" xmlns="http://www.w3.org/2000/svg">
<g clip-path="url(#clip0_1_5)">
<path d="M88.457 24H86.4L85.8855 23.5L82.8 22L80.2285 20L79.2 19.5H77.657L72.5145 20L69.943 19L66.343 17.5H62.2285L60.6855 18.5H51.943L46.285 17L44.7425 17.5L42.685 18L42.171 17.5L37.5425 18L35.485 18.5L31.371 19.5L26.228 22L22.628 21.5L21.085 20.5H17.485L14.914 20H13.885L11.314 19.5L8.228 19L6.685 17.5L2.0565 14.5L0 1.5V0H720L719.485 1.5L718.971 3L717.943 4.5L713.828 5.5L711.771 5L709.714 3.5L708.685 3L705.086 1.5L703.543 1L702 0.5L697.885 1.5H690.685L690.172 1L687.6 2L685.543 3.5L685.029 4L679.885 3L678.343 2.5L673.2 3L671.143 2.5L670.628 2L666 2.5L663.429 3.5H662.4L658.8 3L657.257 3.5H653.657L648 5L642.343 5.5L634.115 6L626.4 5H619.2L612 5.5H607.372L599.657 3.5L598.628 4L597.086 4.5L594.515 4H582.172L572.4 3.5H571.885L568.8 2.5L567.257 3.5L565.2 5L561.086 8L558.515 9L553.885 9.5L551.828 8.5H550.8L546.172 8L542.571 7.5L541.543 7V6.5L540.515 5.5L536.914 6.5L534.857 7L532.8 6L530.229 6.5L524.057 8L520.457 8.5L514.8 10L508.629 10.5H507.6L498.857 11L496.285 12L492.685 14.5L490.629 15.5L487.029 15L485.486 14.5L482.4 14L478.8 13L473.657 12.5H471.086L467.486 12L465.943 11.5H464.914L462.343 12H459.772L458.743 12.5L454.629 12L452.572 10.5L451.543 11L449.486 12.5L446.4 14H443.315L440.228 14.5L439.2 14L435.6 13.5L433.543 14L430.971 14.5L426.343 13.5L421.715 14H412.457L401.143 13.5L396 12.5L393.943 11L392.4 10H389.315L386.228 10.5L383.143 12H375.943L374.914 13L372.343 13.5H368.228L365.143 12.5H363.086L359.486 12H358.457L352.8 12.5L346.629 10.5L343.543 9.5L340.457 8.5L338.4 8L334.285 10L332.228 9.5L330.172 8.5L327.6 8L327.086 8.5L325.029 10.5H319.885L316.8 11.5L310.629 9.5L310.115 8.5L308.572 6.5L307.543 5L305.486 3.5H303.943L302.4 3V2L301.371 1L300.343 1.5L299.315 3L298.285 3.5L297.257 2.5L295.715 2L293.657 3.5H292.115L288.514 1.5L284.914 2L282.857 2.5L277.715 2L274.115 0.5L273.086 0H267.943L266.914 0.5L263.315 1.5H261.772L257.143 5H256.115L255.085 4L253.029 3.5L244.286 3H238.628L237.085 2L232.971 1.5L229.372 2H227.829L226.286 2.5L222.686 1L221.657 0.5L220.628 0L219.6 0.5L213.428 0L209.829 0.5L207.771 1L205.714 3H204.686V1H201.085L199.029 0.5H195.943L193.885 0L190.286 0.5L180 2.5L173.829 2L170.743 2.5L161.486 2H160.457L158.915 3.5L156.857 5.5L152.229 6.5L151.2 5L149.143 5.5H148.628L146.572 6L144 6.5L139.372 8L136.8 9.5L135.257 12L134.743 12.5L133.2 13L131.143 13.5L129.085 12.5L128.057 13V13.5L127.029 14L124.971 13L123.428 13.5L119.828 16.5L118.285 17L116.229 18L114.172 20L110.057 21H109.029L104.4 20L101.828 19.5L92.5715 22L88.457 24Z" fill="#EEEEEE"/>
</g>
<defs>
<clipPath id="clip0_1_5">
<rect width="720" height="24" fill="white"/>
</clipPath>
</defs>
</svg>
